<svg width="255" height="58" viewBox="0 0 255 58" fill="none" xmlns="http://www.w3.org/2000/svg">
<path d="M77.5582 54.1918C77.0398 54.1918 76.5692 54.0941 76.1467 53.8988C75.7241 53.6999 75.3885 53.4141 75.1399 53.0412C74.8913 52.6648 74.767 52.2102 74.767 51.6776C74.767 51.2088 74.8594 50.8288 75.044 50.5376C75.2287 50.2429 75.4755 50.0121 75.7844 49.8452C76.0934 49.6783 76.4343 49.554 76.8072 49.4723C77.1836 49.3871 77.5618 49.3196 77.9418 49.2699C78.4389 49.206 78.842 49.158 79.1509 49.1261C79.4634 49.0906 79.6907 49.032 79.8327 48.9503C79.9783 48.8686 80.0511 48.7266 80.0511 48.5241V48.4815C80.0511 47.956 79.9073 47.5476 79.6197 47.2564C79.3356 46.9652 78.9041 46.8196 78.3253 46.8196C77.7251 46.8196 77.2546 46.951 76.9137 47.2138C76.5728 47.4766 76.3331 47.7571 76.1946 48.0554L75.0014 47.6293C75.2145 47.1321 75.4986 46.745 75.8537 46.468C76.2124 46.1875 76.603 45.9922 77.0256 45.8821C77.4517 45.7685 77.8707 45.7116 78.2827 45.7116C78.5455 45.7116 78.8473 45.7436 79.1882 45.8075C79.5327 45.8679 79.8647 45.994 80.1843 46.1857C80.5075 46.3775 80.7756 46.6669 80.9886 47.054C81.2017 47.4411 81.3082 47.9595 81.3082 48.6094V54H80.0511V52.892H79.9872C79.902 53.0696 79.7599 53.2596 79.5611 53.462C79.3622 53.6644 79.0977 53.8367 78.7674 53.9787C78.4371 54.1207 78.0341 54.1918 77.5582 54.1918ZM77.75 53.0625C78.2472 53.0625 78.6662 52.9648 79.0071 52.7695C79.3516 52.5742 79.6108 52.3221 79.7848 52.0131C79.9624 51.7042 80.0511 51.3793 80.0511 51.0384V49.8878C79.9979 49.9517 79.8807 50.0103 79.6996 50.0636C79.522 50.1133 79.316 50.1577 79.0817 50.1967C78.8508 50.2322 78.6254 50.2642 78.4052 50.2926C78.1886 50.3175 78.0128 50.3388 77.8778 50.3565C77.5511 50.3991 77.2457 50.4684 76.9616 50.5643C76.6811 50.6566 76.4538 50.7969 76.2798 50.9851C76.1094 51.1697 76.0241 51.4219 76.0241 51.7415C76.0241 52.1783 76.1857 52.5085 76.5089 52.7322C76.8356 52.9524 77.2493 53.0625 77.75 53.0625Z" fill="black"/>
<path d="M88.6524 45.8182V46.9901H84.8598V54H83.6027V45.8182H88.6524Z" fill="black"/>
<path d="M90.4875 57.0682V45.8182H91.702V47.1179H91.8511C91.9435 46.9759 92.0713 46.7947 92.2346 46.5746C92.4015 46.3509 92.6395 46.152 92.9484 45.978C93.2609 45.8004 93.6835 45.7116 94.2162 45.7116C94.9051 45.7116 95.5123 45.8839 96.0379 46.2283C96.5635 46.5728 96.9736 47.0611 97.2684 47.6932C97.5631 48.3253 97.7105 49.071 97.7105 49.9304C97.7105 50.7969 97.5631 51.5479 97.2684 52.1836C96.9736 52.8157 96.5653 53.3058 96.0432 53.6538C95.5212 53.9982 94.9193 54.1705 94.2375 54.1705C93.7119 54.1705 93.2911 54.0835 92.9751 53.9094C92.659 53.7319 92.4157 53.5312 92.2453 53.3075C92.0748 53.0803 91.9435 52.892 91.8511 52.7429H91.7446V57.0682H90.4875ZM91.7233 49.9091C91.7233 50.527 91.8138 51.0721 91.9949 51.5444C92.176 52.0131 92.4406 52.3807 92.7886 52.647C93.1366 52.9098 93.5628 53.0412 94.067 53.0412C94.5926 53.0412 95.0312 52.9027 95.3827 52.6257C95.7378 52.3452 96.0042 51.9688 96.1817 51.4964C96.3628 51.0206 96.4534 50.4915 96.4534 49.9091C96.4534 49.3338 96.3646 48.8153 96.1871 48.3537C96.0131 47.8885 95.7485 47.521 95.3934 47.2511C95.0418 46.9776 94.5997 46.8409 94.067 46.8409C93.5557 46.8409 93.126 46.9705 92.778 47.2298C92.4299 47.4854 92.1672 47.8441 91.9896 48.3058C91.8121 48.7638 91.7233 49.2983 91.7233 49.9091Z" fill="black"/>
<path d="M103.059 54.1705C102.27 54.1705 101.59 53.9964 101.018 53.6484C100.45 53.2969 100.012 52.8068 99.7027 52.1783C99.3973 51.5462 99.2446 50.8111 99.2446 49.973C99.2446 49.1349 99.3973 48.3963 99.7027 47.7571C100.012 47.1143 100.441 46.6136 100.992 46.255C101.546 45.8928 102.192 45.7116 102.931 45.7116C103.357 45.7116 103.778 45.7827 104.193 45.9247C104.609 46.0668 104.987 46.2976 105.328 46.6172C105.669 46.9332 105.94 47.3523 106.143 47.8743C106.345 48.3963 106.446 49.0391 106.446 49.8026V50.3352H100.139V49.2486H105.168C105.168 48.7869 105.076 48.375 104.891 48.0128C104.71 47.6506 104.451 47.3647 104.113 47.1552C103.779 46.9457 103.385 46.8409 102.931 46.8409C102.43 46.8409 101.997 46.9652 101.631 47.2138C101.269 47.4588 100.99 47.7784 100.795 48.1726C100.599 48.5668 100.502 48.9893 100.502 49.4403V50.1648C100.502 50.7827 100.608 51.3065 100.821 51.7361C101.038 52.1623 101.338 52.4872 101.722 52.7109C102.105 52.9311 102.551 53.0412 103.059 53.0412C103.389 53.0412 103.687 52.995 103.953 52.9027C104.223 52.8068 104.456 52.6648 104.651 52.4766C104.847 52.2848 104.997 52.0469 105.104 51.7628L106.318 52.1037C106.191 52.5156 105.976 52.8778 105.674 53.1903C105.372 53.4993 104.999 53.7408 104.555 53.9148C104.111 54.0852 103.612 54.1705 103.059 54.1705Z" fill="black"/>
<path d="M113.408 45.8182V46.9901H109.616V54H108.359V45.8182H113.408Z" fill="black"/>
<path d="M117.226 54.1918C116.708 54.1918 116.237 54.0941 115.815 53.8988C115.392 53.6999 115.056 53.4141 114.808 53.0412C114.559 52.6648 114.435 52.2102 114.435 51.6776C114.435 51.2088 114.527 50.8288 114.712 50.5376C114.897 50.2429 115.143 50.0121 115.452 49.8452C115.761 49.6783 116.102 49.554 116.475 49.4723C116.852 49.3871 117.23 49.3196 117.61 49.2699C118.107 49.206 118.51 49.158 118.819 49.1261C119.131 49.0906 119.359 49.032 119.501 48.9503C119.646 48.8686 119.719 48.7266 119.719 48.5241V48.4815C119.719 47.956 119.575 47.5476 119.288 47.2564C119.004 46.9652 118.572 46.8196 117.993 46.8196C117.393 46.8196 116.923 46.951 116.582 47.2138C116.241 47.4766 116.001 47.7571 115.863 48.0554L114.669 47.6293C114.882 47.1321 115.167 46.745 115.522 46.468C115.88 46.1875 116.271 45.9922 116.694 45.8821C117.12 45.7685 117.539 45.7116 117.951 45.7116C118.213 45.7116 118.515 45.7436 118.856 45.8075C119.201 45.8679 119.533 45.994 119.852 46.1857C120.175 46.3775 120.444 46.6669 120.657 47.054C120.87 47.4411 120.976 47.9595 120.976 48.6094V54H119.719V52.892H119.655C119.57 53.0696 119.428 53.2596 119.229 53.462C119.03 53.6644 118.766 53.8367 118.435 53.9787C118.105 54.1207 117.702 54.1918 117.226 54.1918ZM117.418 53.0625C117.915 53.0625 118.334 52.9648 118.675 52.7695C119.02 52.5742 119.279 52.3221 119.453 52.0131C119.63 51.7042 119.719 51.3793 119.719 51.0384V49.8878C119.666 49.9517 119.549 50.0103 119.368 50.0636C119.19 50.1133 118.984 50.1577 118.75 50.1967C118.519 50.2322 118.293 50.2642 118.073 50.2926C117.857 50.3175 117.681 50.3388 117.546 50.3565C117.219 50.3991 116.914 50.4684 116.63 50.5643C116.349 50.6566 116.122 50.7969 115.948 50.9851C115.777 51.1697 115.692 51.4219 115.692 51.7415C115.692 52.1783 115.854 52.5085 116.177 52.7322C116.504 52.9524 116.917 53.0625 117.418 53.0625Z" fill="black"/>
<path d="M122.157 46.9901V45.8182H128.805V46.9901H126.12V54H124.863V46.9901H122.157Z" fill="black"/>
<path d="M133.538 54.1705C132.799 54.1705 132.151 53.9947 131.594 53.6431C131.04 53.2915 130.606 52.7997 130.294 52.1676C129.985 51.5355 129.831 50.7969 129.831 49.9517C129.831 49.0994 129.985 48.3555 130.294 47.7198C130.606 47.0842 131.04 46.5906 131.594 46.239C132.151 45.8874 132.799 45.7116 133.538 45.7116C134.277 45.7116 134.923 45.8874 135.477 46.239C136.034 46.5906 136.468 47.0842 136.777 47.7198C137.089 48.3555 137.245 49.0994 137.245 49.9517C137.245 50.7969 137.089 51.5355 136.777 52.1676C136.468 52.7997 136.034 53.2915 135.477 53.6431C134.923 53.9947 134.277 54.1705 133.538 54.1705ZM133.538 53.0412C134.099 53.0412 134.561 52.8974 134.923 52.6097C135.285 52.3221 135.553 51.9439 135.727 51.4751C135.901 51.0064 135.988 50.4986 135.988 49.9517C135.988 49.4048 135.901 48.8952 135.727 48.4229C135.553 47.9506 135.285 47.5689 134.923 47.2777C134.561 46.9865 134.099 46.8409 133.538 46.8409C132.977 46.8409 132.515 46.9865 132.153 47.2777C131.791 47.5689 131.523 47.9506 131.349 48.4229C131.175 48.8952 131.088 49.4048 131.088 49.9517C131.088 50.4986 131.175 51.0064 131.349 51.4751C131.523 51.9439 131.791 52.3221 132.153 52.6097C132.515 52.8974 132.977 53.0412 133.538 53.0412Z" fill="black"/>
<path d="M139.164 57.0682V45.8182H140.379V47.1179H140.528C140.62 46.9759 140.748 46.7947 140.911 46.5746C141.078 46.3509 141.316 46.152 141.625 45.978C141.938 45.8004 142.36 45.7116 142.893 45.7116C143.582 45.7116 144.189 45.8839 144.715 46.2283C145.24 46.5728 145.65 47.0611 145.945 47.6932C146.24 48.3253 146.387 49.071 146.387 49.9304C146.387 50.7969 146.24 51.5479 145.945 52.1836C145.65 52.8157 145.242 53.3058 144.72 53.6538C144.198 53.9982 143.596 54.1705 142.914 54.1705C142.389 54.1705 141.968 54.0835 141.652 53.9094C141.336 53.7319 141.093 53.5312 140.922 53.3075C140.752 53.0803 140.62 52.892 140.528 52.7429H140.421V57.0682H139.164ZM140.4 49.9091C140.4 50.527 140.491 51.0721 140.672 51.5444C140.853 52.0131 141.117 52.3807 141.465 52.647C141.813 52.9098 142.24 53.0412 142.744 53.0412C143.269 53.0412 143.708 52.9027 144.059 52.6257C144.415 52.3452 144.681 51.9688 144.858 51.4964C145.04 51.0206 145.13 50.4915 145.13 49.9091C145.13 49.3338 145.041 48.8153 144.864 48.3537C144.69 47.8885 144.425 47.521 144.07 47.2511C143.719 46.9776 143.276 46.8409 142.744 46.8409C142.232 46.8409 141.803 46.9705 141.455 47.2298C141.107 47.4854 140.844 47.8441 140.666 48.3058C140.489 48.7638 140.4 49.2983 140.4 49.9091Z" fill="black"/>
<path d="M152.524 54V45.8182H158.958V54H157.701V46.9901H153.781V54H152.524Z" fill="black"/>
<path d="M164.684 54.1705C163.896 54.1705 163.216 53.9964 162.644 53.6484C162.076 53.2969 161.638 52.8068 161.329 52.1783C161.023 51.5462 160.871 50.8111 160.871 49.973C160.871 49.1349 161.023 48.3963 161.329 47.7571C161.638 47.1143 162.067 46.6136 162.618 46.255C163.172 45.8928 163.818 45.7116 164.557 45.7116C164.983 45.7116 165.404 45.7827 165.819 45.9247C166.235 46.0668 166.613 46.2976 166.954 46.6172C167.295 46.9332 167.566 47.3523 167.769 47.8743C167.971 48.3963 168.072 49.0391 168.072 49.8026V50.3352H161.765V49.2486H166.794C166.794 48.7869 166.702 48.375 166.517 48.0128C166.336 47.6506 166.077 47.3647 165.739 47.1552C165.405 46.9457 165.011 46.8409 164.557 46.8409C164.056 46.8409 163.623 46.9652 163.257 47.2138C162.895 47.4588 162.616 47.7784 162.421 48.1726C162.225 48.5668 162.128 48.9893 162.128 49.4403V50.1648C162.128 50.7827 162.234 51.3065 162.447 51.7361C162.664 52.1623 162.964 52.4872 163.347 52.7109C163.731 52.9311 164.177 53.0412 164.684 53.0412C165.015 53.0412 165.313 52.995 165.579 52.9027C165.849 52.8068 166.082 52.6648 166.277 52.4766C166.472 52.2848 166.623 52.0469 166.73 51.7628L167.944 52.1037C167.817 52.5156 167.602 52.8778 167.3 53.1903C166.998 53.4993 166.625 53.7408 166.181 53.9148C165.737 54.0852 165.238 54.1705 164.684 54.1705Z" fill="black"/>
<path d="M169.985 57.0682V45.8182H171.199V47.1179H171.348C171.441 46.9759 171.568 46.7947 171.732 46.5746C171.899 46.3509 172.137 46.152 172.445 45.978C172.758 45.8004 173.181 45.7116 173.713 45.7116C174.402 45.7116 175.009 45.8839 175.535 46.2283C176.061 46.5728 176.471 47.0611 176.765 47.6932C177.06 48.3253 177.208 49.071 177.208 49.9304C177.208 50.7969 177.06 51.5479 176.765 52.1836C176.471 52.8157 176.062 53.3058 175.54 53.6538C175.018 53.9982 174.416 54.1705 173.735 54.1705C173.209 54.1705 172.788 54.0835 172.472 53.9094C172.156 53.7319 171.913 53.5312 171.742 53.3075C171.572 53.0803 171.441 52.892 171.348 52.7429H171.242V57.0682H169.985ZM171.22 49.9091C171.22 50.527 171.311 51.0721 171.492 51.5444C171.673 52.0131 171.938 52.3807 172.286 52.647C172.634 52.9098 173.06 53.0412 173.564 53.0412C174.09 53.0412 174.528 52.9027 174.88 52.6257C175.235 52.3452 175.501 51.9688 175.679 51.4964C175.86 51.0206 175.95 50.4915 175.95 49.9091C175.95 49.3338 175.862 48.8153 175.684 48.3537C175.51 47.8885 175.246 47.521 174.89 47.2511C174.539 46.9776 174.097 46.8409 173.564 46.8409C173.053 46.8409 172.623 46.9705 172.275 47.2298C171.927 47.4854 171.664 47.8441 171.487 48.3058C171.309 48.7638 171.22 49.2983 171.22 49.9091Z" fill="black"/>
<path d="M182.556 54.1705C181.767 54.1705 181.087 53.9964 180.515 53.6484C179.947 53.2969 179.509 52.8068 179.2 52.1783C178.894 51.5462 178.742 50.8111 178.742 49.973C178.742 49.1349 178.894 48.3963 179.2 47.7571C179.509 47.1143 179.938 46.6136 180.489 46.255C181.043 45.8928 181.689 45.7116 182.428 45.7116C182.854 45.7116 183.275 45.7827 183.69 45.9247C184.106 46.0668 184.484 46.2976 184.825 46.6172C185.166 46.9332 185.437 47.3523 185.64 47.8743C185.842 48.3963 185.943 49.0391 185.943 49.8026V50.3352H179.637V49.2486H184.665C184.665 48.7869 184.573 48.375 184.388 48.0128C184.207 47.6506 183.948 47.3647 183.61 47.1552C183.276 46.9457 182.882 46.8409 182.428 46.8409C181.927 46.8409 181.494 46.9652 181.128 47.2138C180.766 47.4588 180.487 47.7784 180.292 48.1726C180.096 48.5668 179.999 48.9893 179.999 49.4403V50.1648C179.999 50.7827 180.105 51.3065 180.318 51.7361C180.535 52.1623 180.835 52.4872 181.219 52.7109C181.602 52.9311 182.048 53.0412 182.556 53.0412C182.886 53.0412 183.184 52.995 183.45 52.9027C183.72 52.8068 183.953 52.6648 184.148 52.4766C184.344 52.2848 184.494 52.0469 184.601 51.7628L185.816 52.1037C185.688 52.5156 185.473 52.8778 185.171 53.1903C184.869 53.4993 184.496 53.7408 184.052 53.9148C183.608 54.0852 183.11 54.1705 182.556 54.1705Z" fill="black"/>
<path d="M187.856 54V45.8182H191.201C192.081 45.8182 192.781 46.017 193.3 46.4148C193.818 46.8125 194.077 47.3381 194.077 47.9915C194.077 48.4886 193.93 48.8739 193.635 49.1474C193.34 49.4173 192.962 49.6001 192.501 49.696C192.802 49.7386 193.095 49.8452 193.379 50.0156C193.667 50.1861 193.905 50.4205 194.093 50.7188C194.281 51.0135 194.376 51.3757 194.376 51.8054C194.376 52.2244 194.269 52.5991 194.056 52.9293C193.843 53.2596 193.537 53.5206 193.14 53.7124C192.742 53.9041 192.266 54 191.712 54H187.856ZM189.049 52.8494H191.712C192.145 52.8494 192.485 52.7464 192.73 52.5405C192.975 52.3345 193.097 52.054 193.097 51.6989C193.097 51.2763 192.975 50.9442 192.73 50.7028C192.485 50.4577 192.145 50.3352 191.712 50.3352H189.049V52.8494ZM189.049 49.2486H191.201C191.538 49.2486 191.828 49.2024 192.069 49.1101C192.311 49.0142 192.495 48.8793 192.623 48.7053C192.754 48.5277 192.82 48.3182 192.82 48.0767C192.82 47.7322 192.676 47.4624 192.389 47.267C192.101 47.0682 191.705 46.9688 191.201 46.9688H189.049V49.2486Z" fill="black"/>
<path d="M199.602 54.1705C198.864 54.1705 198.216 53.9947 197.658 53.6431C197.104 53.2915 196.671 52.7997 196.358 52.1676C196.049 51.5355 195.895 50.7969 195.895 49.9517C195.895 49.0994 196.049 48.3555 196.358 47.7198C196.671 47.0842 197.104 46.5906 197.658 46.239C198.216 45.8874 198.864 45.7116 199.602 45.7116C200.341 45.7116 200.987 45.8874 201.541 46.239C202.099 46.5906 202.532 47.0842 202.841 47.7198C203.154 48.3555 203.31 49.0994 203.31 49.9517C203.31 50.7969 203.154 51.5355 202.841 52.1676C202.532 52.7997 202.099 53.2915 201.541 53.6431C200.987 53.9947 200.341 54.1705 199.602 54.1705ZM199.602 53.0412C200.163 53.0412 200.625 52.8974 200.987 52.6097C201.35 52.3221 201.618 51.9439 201.792 51.4751C201.966 51.0064 202.053 50.4986 202.053 49.9517C202.053 49.4048 201.966 48.8952 201.792 48.4229C201.618 47.9506 201.35 47.5689 200.987 47.2777C200.625 46.9865 200.163 46.8409 199.602 46.8409C199.041 46.8409 198.58 46.9865 198.217 47.2777C197.855 47.5689 197.587 47.9506 197.413 48.4229C197.239 48.8952 197.152 49.4048 197.152 49.9517C197.152 50.4986 197.239 51.0064 197.413 51.4751C197.587 51.9439 197.855 52.3221 198.217 52.6097C198.58 52.8974 199.041 53.0412 199.602 53.0412Z" fill="black"/>
<path d="M204.717 51.9119H206.06C206.088 52.2812 206.255 52.5618 206.56 52.7536C206.869 52.9453 207.271 53.0412 207.764 53.0412C208.268 53.0412 208.7 52.9382 209.059 52.7322C209.417 52.5227 209.597 52.1854 209.597 51.7202C209.597 51.4467 209.529 51.2088 209.394 51.0064C209.259 50.8004 209.069 50.6406 208.824 50.527C208.579 50.4134 208.29 50.3565 207.956 50.3565H206.55V49.2273H207.956C208.457 49.2273 208.826 49.1136 209.064 48.8864C209.305 48.6591 209.426 48.375 209.426 48.0341C209.426 47.6683 209.297 47.3754 209.037 47.1552C208.778 46.9315 208.411 46.8196 207.935 46.8196C207.455 46.8196 207.056 46.9279 206.736 47.1445C206.417 47.3576 206.248 47.6328 206.23 47.9702H204.909C204.923 47.5298 205.058 47.141 205.314 46.8036C205.57 46.4627 205.918 46.1964 206.358 46.0046C206.798 45.8093 207.303 45.7116 207.871 45.7116C208.446 45.7116 208.945 45.8129 209.368 46.0153C209.794 46.2141 210.122 46.4858 210.353 46.8303C210.587 47.1712 210.705 47.5582 210.705 47.9915C210.705 48.4531 210.575 48.826 210.316 49.1101C210.056 49.3942 209.732 49.5966 209.341 49.7173V49.8026C209.65 49.8239 209.918 49.9233 210.145 50.1009C210.376 50.2749 210.555 50.5039 210.683 50.788C210.811 51.0685 210.875 51.3793 210.875 51.7202C210.875 52.2173 210.742 52.6506 210.475 53.0199C210.209 53.3857 209.843 53.6697 209.378 53.8722C208.913 54.071 208.382 54.1705 207.786 54.1705C207.207 54.1705 206.688 54.0763 206.23 53.8881C205.772 53.6964 205.408 53.4318 205.138 53.0945C204.872 52.7536 204.732 52.3594 204.717 51.9119Z" fill="black"/>
<path d="M218.948 45.8182V54H217.691V45.8182H218.948ZM218.458 49.7173V50.8892C218.173 50.9957 217.891 51.0898 217.611 51.1715C217.33 51.2496 217.035 51.3118 216.726 51.358C216.417 51.4006 216.078 51.4219 215.709 51.4219C214.782 51.4219 214.038 51.1715 213.477 50.6708C212.92 50.1701 212.641 49.419 212.641 48.4176V45.7969H213.898V48.4176C213.898 48.8366 213.978 49.1811 214.138 49.451C214.297 49.7209 214.514 49.9215 214.787 50.0529C215.061 50.1843 215.368 50.25 215.709 50.25C216.242 50.25 216.723 50.2021 217.153 50.1062C217.586 50.0067 218.021 49.8771 218.458 49.7173Z" fill="black"/>
<path d="M222.511 52.1463L226.453 45.8182H227.902V54H226.645V47.6719L222.724 54H221.254V45.8182H222.511V52.1463Z" fill="black"/>
<path d="M230.204 54V45.8182H231.461V49.3764H232.292L235.233 45.8182H236.852L233.549 49.7599L236.895 54H235.275L232.591 50.5483H231.461V54H230.204Z" fill="black"/>
<path d="M241.248 54.1705C240.509 54.1705 239.861 53.9947 239.304 53.6431C238.75 53.2915 238.316 52.7997 238.004 52.1676C237.695 51.5355 237.54 50.7969 237.54 49.9517C237.54 49.0994 237.695 48.3555 238.004 47.7198C238.316 47.0842 238.75 46.5906 239.304 46.239C239.861 45.8874 240.509 45.7116 241.248 45.7116C241.986 45.7116 242.633 45.8874 243.187 46.239C243.744 46.5906 244.178 47.0842 244.487 47.7198C244.799 48.3555 244.955 49.0994 244.955 49.9517C244.955 50.7969 244.799 51.5355 244.487 52.1676C244.178 52.7997 243.744 53.2915 243.187 53.6431C242.633 53.9947 241.986 54.1705 241.248 54.1705ZM241.248 53.0412C241.809 53.0412 242.271 52.8974 242.633 52.6097C242.995 52.3221 243.263 51.9439 243.437 51.4751C243.611 51.0064 243.698 50.4986 243.698 49.9517C243.698 49.4048 243.611 48.8952 243.437 48.4229C243.263 47.9506 242.995 47.5689 242.633 47.2777C242.271 46.9865 241.809 46.8409 241.248 46.8409C240.687 46.8409 240.225 46.9865 239.863 47.2777C239.501 47.5689 239.233 47.9506 239.059 48.4229C238.885 48.8952 238.798 49.4048 238.798 49.9517C238.798 50.4986 238.885 51.0064 239.059 51.4751C239.233 51.9439 239.501 52.3221 239.863 52.6097C240.225 52.8974 240.687 53.0412 241.248 53.0412Z" fill="black"/>
<path d="M246.874 54V45.8182H250.219C251.1 45.8182 251.8 46.017 252.318 46.4148C252.837 46.8125 253.096 47.3381 253.096 47.9915C253.096 48.4886 252.948 48.8739 252.654 49.1474C252.359 49.4173 251.981 49.6001 251.519 49.696C251.821 49.7386 252.114 49.8452 252.398 50.0156C252.686 50.1861 252.924 50.4205 253.112 50.7188C253.3 51.0135 253.394 51.3757 253.394 51.8054C253.394 52.2244 253.288 52.5991 253.074 52.9293C252.861 53.2596 252.556 53.5206 252.158 53.7124C251.761 53.9041 251.285 54 250.731 54H246.874ZM248.067 52.8494H250.731C251.164 52.8494 251.503 52.7464 251.748 52.5405C251.993 52.3345 252.116 52.054 252.116 51.6989C252.116 51.2763 251.993 50.9442 251.748 50.7028C251.503 50.4577 251.164 50.3352 250.731 50.3352H248.067V52.8494ZM248.067 49.2486H250.219C250.557 49.2486 250.846 49.2024 251.088 49.1101C251.329 49.0142 251.514 48.8793 251.642 48.7053C251.773 48.5277 251.839 48.3182 251.839 48.0767C251.839 47.7322 251.695 47.4624 251.407 47.267C251.12 47.0682 250.724 46.9688 250.219 46.9688H248.067V49.2486Z" fill="black"/>
<path d="M18.865 1.25938L18.92 39.3744H13.42V14.7344L5.83 38.9894H0V1.47939H5.445V25.6244L13.255 1.25938H18.865Z" fill="white"/>
<path d="M53.4338 33.8194L55.9088 33.8744L55.7988 44.9844L50.2988 44.9294L50.3538 39.6494L24.0638 39.3744V1.31438H29.5088V33.9844L35.7238 34.0394L35.3388 1.09438L40.7838 1.03938L41.2238 34.0944L47.9338 34.1494L47.3838 1.09438L52.8288 1.03938L53.4338 33.8194Z" fill="white"/>
<path d="M254.793 1.27372L248.421 29.4617C247.017 36.2657 244.695 39.6677 236.433 39.1277V33.8357C239.457 34.0517 241.185 33.5117 241.671 30.7577L241.725 30.4337L233.517 1.27372H239.403L242.643 14.1797L244.479 23.0357L245.883 14.2337L248.583 1.27372H254.793Z" fill="black"/>
<path d="M77.4494 1.06451L70.9594 29.7745C69.5294 36.7045 67.1644 40.1695 58.7494 39.6195V34.2295C61.8294 34.4495 63.5894 33.8995 64.0844 31.0945L64.1394 30.7645L55.7794 1.06451H61.7744L65.0744 14.2095L66.9444 23.2295L68.3744 14.2645L71.1244 1.06451H77.4494Z" fill="white"/>
<path d="M101.041 33.825V39.325H75.7961V33.825H79.2061C82.3961 24.53 82.5611 4.015 82.5611 3.795V1.045L98.2911 1.21L98.0161 33.825H101.041ZM87.9511 6.545C87.8411 12.265 87.2361 25.465 84.9261 33.825H92.5161L92.7911 6.6L87.9511 6.545Z" fill="black"/>
<path d="M119.342 2.42C122.422 5.225 123.797 10.505 123.797 19.03C123.797 29.095 121.982 35.695 118.297 38.72C116.922 39.82 115.272 40.425 113.567 40.425C113.072 40.425 112.577 40.37 112.082 40.26C110.102 39.875 107.352 38.39 105.372 33.44C103.942 29.81 103.227 24.97 103.227 19.03C103.227 13.365 103.832 9.13 105.152 6.16C107.132 1.815 110.322 0.604999 112.687 0.384998C115.327 0.109999 117.582 0.824999 119.342 2.42ZM114.832 34.485C118.077 31.79 118.352 22 118.352 19.03C118.352 10.23 116.647 7.37 115.657 6.49C115.272 6.105 114.612 5.72 113.182 5.83C112.082 5.94 108.672 6.27 108.672 19.03C108.672 29.975 111.422 34.595 113.182 34.925C113.787 35.035 114.282 34.925 114.832 34.485Z" fill="black"/>
<path d="M141.477 25.19H146.977C146.977 26.73 146.812 30.745 145.382 34.265C143.787 38.225 140.982 40.37 137.517 40.37C132.787 40.37 130.422 36.465 129.487 34.1C128.057 30.8 127.397 26.18 127.397 20.35C127.397 14.795 127.892 10.505 128.937 7.315C130.972 1.265 134.657 0 137.407 0C139.772 0 141.807 0.879998 143.292 2.53C145.767 5.17 146.647 9.57 146.152 15.95L140.652 15.455C141.202 9.35 140.047 7.04 139.277 6.215C139.002 5.94 138.452 5.5 137.407 5.5C135.317 5.5 134.492 7.975 134.162 9.02C133.282 11.605 132.842 15.455 132.842 20.35C132.842 29.205 134.657 34.925 137.517 34.925C139.222 34.925 140.047 32.89 140.322 32.23C141.037 30.415 141.477 27.775 141.477 25.19Z" fill="black"/>
<path d="M167.217 6.545L160.727 6.6L161.222 39.105L155.722 39.215L155.282 6.71L148.902 6.765L148.847 1.265L167.162 1.1L167.217 6.545Z" fill="black"/>
<path d="M181.387 39.27L180.342 32.175H173.137L172.202 39.27L166.482 39.16L171.872 1.045H181.442L186.942 39.215L181.387 39.27ZM173.852 26.73H179.572L176.712 6.545L176.657 5.94L173.852 26.73Z" fill="black"/>
<path d="M206.254 20.405C208.344 22.44 209.554 25.19 209.554 28.05C209.554 31.13 208.234 33.935 205.814 35.97C203.284 38.17 199.709 39.325 195.419 39.325H190.854L190.414 1.595L193.659 1.32C201.469 0.220001 205.044 3.465 206.529 5.5C208.619 8.415 208.839 12.32 207.134 15.675C206.474 16.995 205.539 18.15 204.439 19.03C205.099 19.415 205.704 19.91 206.254 20.405ZM195.914 6.6L196.024 16.72L197.234 16.665C199.544 16.665 201.469 15.455 202.294 13.2C202.844 11.605 202.954 9.955 202.074 8.69C200.974 7.205 198.774 6.435 195.914 6.6ZM202.294 31.79C203.449 30.8 204.109 29.48 204.109 28.05C204.109 24.475 200.644 21.45 197.289 21.45H196.134L196.244 33.825C198.829 33.66 200.864 33 202.294 31.79Z" fill="black"/>
<path d="M227.154 39.27L220.719 18.26L218.959 20.845V39.38H213.514V1.375H218.959V12.32L225.724 1.265H232.379L224.294 13.09L233.314 39.16L227.154 39.27Z" fill="black"/>
</svg>
